P2
# C FreeType reference render
44 47
255
0 0 0 0 0 0 0 0 0 0 0 0 0 0 0 0 0 1 223 255 255 255 255 255 255 167 0 0 0 0 0 0 0 0 0 0 0 0 0 0 0 0 0 0 
0 0 0 0 0 0 0 0 0 0 0 0 0 0 0 0 0 66 255 255 255 255 255 255 255 247 16 0 0 0 0 0 0 0 0 0 0 0 0 0 0 0 0 0 
0 0 0 0 0 0 0 0 0 0 0 0 0 0 0 0 0 163 255 255 255 255 255 255 255 255 105 0 0 0 0 0 0 0 0 0 0 0 0 0 0 0 0 0 
0 0 0 0 0 0 0 0 0 0 0 0 0 0 0 0 14 245 255 255 255 255 255 255 255 255 202 0 0 0 0 0 0 0 0 0 0 0 0 0 0 0 0 0 
0 0 0 0 0 0 0 0 0 0 0 0 0 0 0 0 101 255 255 255 255 255 255 255 255 255 255 43 0 0 0 0 0 0 0 0 0 0 0 0 0 0 0 0 
0 0 0 0 0 0 0 0 0 0 0 0 0 0 0 0 198 255 255 255 255 255 255 255 255 255 255 140 0 0 0 0 0 0 0 0 0 0 0 0 0 0 0 0 
0 0 0 0 0 0 0 0 0 0 0 0 0 0 0 39 255 255 255 255 255 220 251 255 255 255 255 232 4 0 0 0 0 0 0 0 0 0 0 0 0 0 0 0 
0 0 0 0 0 0 0 0 0 0 0 0 0 0 0 136 255 255 255 255 255 116 180 255 255 255 255 255 77 0 0 0 0 0 0 0 0 0 0 0 0 0 0 0 
0 0 0 0 0 0 0 0 0 0 0 0 0 0 3 229 255 255 255 255 253 26 87 255 255 255 255 255 174 0 0 0 0 0 0 0 0 0 0 0 0 0 0 0 
0 0 0 0 0 0 0 0 0 0 0 0 0 0 74 255 255 255 255 255 187 0 9 241 255 255 255 255 250 21 0 0 0 0 0 0 0 0 0 0 0 0 0 0 
0 0 0 0 0 0 0 0 0 0 0 0 0 0 171 255 255 255 255 255 94 0 0 157 255 255 255 255 255 112 0 0 0 0 0 0 0 0 0 0 0 0 0 0 
0 0 0 0 0 0 0 0 0 0 0 0 0 18 249 255 255 255 255 245 12 0 0 64 255 255 255 255 255 209 0 0 0 0 0 0 0 0 0 0 0 0 0 0 
0 0 0 0 0 0 0 0 0 0 0 0 0 109 255 255 255 255 255 165 0 0 0 1 225 255 255 255 255 255 50 0 0 0 0 0 0 0 0 0 0 0 0 0 
0 0 0 0 0 0 0 0 0 0 0 0 0 206 255 255 255 255 255 72 0 0 0 0 134 255 255 255 255 255 147 0 0 0 0 0 0 0 0 0 0 0 0 0 
0 0 0 0 0 0 0 0 0 0 0 0 47 255 255 255 255 255 232 3 0 0 0 0 41 255 255 255 255 255 237 6 0 0 0 0 0 0 0 0 0 0 0 0 
0 0 0 0 0 0 0 0 0 0 0 0 144 255 255 255 255 255 143 0 0 0 0 0 0 204 255 255 255 255 255 84 0 0 0 0 0 0 0 0 0 0 0 0 
0 0 0 0 0 0 0 0 0 0 0 5 235 255 255 255 255 255 50 0 0 0 0 0 0 111 255 255 255 255 255 181 0 0 0 0 0 0 0 0 0 0 0 0 
0 0 0 0 0 0 0 0 0 0 0 82 255 255 255 255 255 213 0 0 0 0 0 0 0 22 251 255 255 255 255 252 26 0 0 0 0 0 0 0 0 0 0 0 
0 0 0 0 0 0 0 0 0 0 0 179 255 255 255 255 255 121 0 0 0 0 0 0 0 0 181 255 255 255 255 255 119 0 0 0 0 0 0 0 0 0 0 0 
0 0 0 0 0 0 0 0 0 0 24 251 255 255 255 255 254 30 0 0 0 0 0 0 0 0 88 255 255 255 255 255 215 0 0 0 0 0 0 0 0 0 0 0 
0 0 0 0 0 0 0 0 0 0 117 255 255 255 255 255 191 0 0 0 0 0 0 0 0 0 9 242 255 255 255 255 255 57 0 0 0 0 0 0 0 0 0 0 
0 0 0 0 0 0 0 0 0 0 213 255 255 255 255 255 99 0 0 0 0 0 0 0 0 0 0 158 255 255 255 255 255 153 0 0 0 0 0 0 0 0 0 0 
0 0 0 0 0 0 0 0 0 55 255 255 255 255 255 247 15 0 0 0 0 0 0 0 0 0 0 65 255 255 255 255 255 241 9 0 0 0 0 0 0 0 0 0 
0 0 0 0 0 0 0 0 0 152 255 255 255 255 255 169 0 0 0 0 0 0 0 0 0 0 0 1 226 255 255 255 255 255 91 0 0 0 0 0 0 0 0 0 
0 0 0 0 0 0 0 0 8 240 255 255 255 255 255 77 0 0 0 0 0 0 0 0 0 0 0 0 135 255 255 255 255 255 188 0 0 0 0 0 0 0 0 0 
0 0 0 0 0 0 0 0 90 255 255 255 255 255 235 5 0 0 0 0 0 0 0 0 0 0 0 0 42 255 255 255 255 255 254 31 0 0 0 0 0 0 0 0 
0 0 0 0 0 0 0 0 187 255 255 255 255 255 147 0 0 0 0 0 0 0 0 0 0 0 0 0 0 205 255 255 255 255 255 126 0 0 0 0 0 0 0 0 
0 0 0 0 0 0 0 30 253 255 255 255 255 255 55 0 0 0 0 0 0 0 0 0 0 0 0 0 0 112 255 255 255 255 255 221 1 0 0 0 0 0 0 0 
0 0 0 0 0 0 0 125 255 255 255 255 255 218 0 0 0 0 0 0 0 0 0 0 0 0 0 0 0 23 252 255 255 255 255 255 63 0 0 0 0 0 0 0 
0 0 0 0 0 0 1 221 255 255 255 255 255 126 0 0 0 0 0 0 0 0 0 0 0 0 0 0 0 0 182 255 255 255 255 255 160 0 0 0 0 0 0 0 
0 0 0 0 0 0 63 255 255 255 255 255 255 255 255 255 255 255 255 255 255 255 255 255 255 255 255 255 255 255 255 255 255 255 255 255 244 12 0 0 0 0 0 0 
0 0 0 0 0 0 160 255 255 255 255 255 255 255 255 255 255 255 255 255 255 255 255 255 255 255 255 255 255 255 255 255 255 255 255 255 255 98 0 0 0 0 0 0 
0 0 0 0 0 12 244 255 255 255 255 255 255 255 255 255 255 255 255 255 255 255 255 255 255 255 255 255 255 255 255 255 255 255 255 255 255 195 0 0 0 0 0 0 
0 0 0 0 0 98 255 255 255 255 255 255 255 255 255 255 255 255 255 255 255 255 255 255 255 255 255 255 255 255 255 255 255 255 255 255 255 255 36 0 0 0 0 0 
0 0 0 0 0 195 255 255 255 255 255 255 255 255 255 255 255 255 255 255 255 255 255 255 255 255 255 255 255 255 255 255 255 255 255 255 255 255 132 0 0 0 0 0 
0 0 0 0 37 255 255 255 255 255 255 58 0 0 0 0 0 0 0 0 0 0 0 0 0 0 0 0 0 0 0 0 99 255 255 255 255 255 227 2 0 0 0 0 
0 0 0 0 133 255 255 255 255 255 222 0 0 0 0 0 0 0 0 0 0 0 0 0 0 0 0 0 0 0 0 0 15 248 255 255 255 255 255 70 0 0 0 0 
0 0 0 2 227 255 255 255 255 255 132 0 0 0 0 0 0 0 0 0 0 0 0 0 0 0 0 0 0 0 0 0 0 174 255 255 255 255 255 167 0 0 0 0 
0 0 0 71 255 255 255 255 255 255 42 0 0 0 0 0 0 0 0 0 0 0 0 0 0 0 0 0 0 0 0 0 0 83 255 255 255 255 255 247 16 0 0 0 
0 0 0 168 255 255 255 255 255 207 0 0 0 0 0 0 0 0 0 0 0 0 0 0 0 0 0 0 0 0 0 0 0 7 240 255 255 255 255 255 105 0 0 0 
0 0 17 248 255 255 255 255 255 116 0 0 0 0 0 0 0 0 0 0 0 0 0 0 0 0 0 0 0 0 0 0 0 0 158 255 255 255 255 255 202 0 0 0 
0 0 106 255 255 255 255 255 254 28 0 0 0 0 0 0 0 0 0 0 0 0 0 0 0 0 0 0 0 0 0 0 0 0 67 255 255 255 255 255 255 43 0 0 
0 0 203 255 255 255 255 255 191 0 0 0 0 0 0 0 0 0 0 0 0 0 0 0 0 0 0 0 0 0 0 0 0 0 2 229 255 255 255 255 255 139 0 0 
0 44 255 255 255 255 255 255 100 0 0 0 0 0 0 0 0 0 0 0 0 0 0 0 0 0 0 0 0 0 0 0 0 0 0 142 255 255 255 255 255 232 4 0 
0 141 255 255 255 255 255 249 17 0 0 0 0 0 0 0 0 0 0 0 0 0 0 0 0 0 0 0 0 0 0 0 0 0 0 51 255 255 255 255 255 255 77 0 
4 233 255 255 255 255 255 175 0 0 0 0 0 0 0 0 0 0 0 0 0 0 0 0 0 0 0 0 0 0 0 0 0 0 0 0 216 255 255 255 255 255 174 0 
79 255 255 255 255 255 255 85 0 0 0 0 0 0 0 0 0 0 0 0 0 0 0 0 0 0 0 0 0 0 0 0 0 0 0 0 125 255 255 255 255 255 250 21 
